<svg width="3" height="10" viewBox="0 0 3 10" fill="none" xmlns="http://www.w3.org/2000/svg">
<path d="M1.25 7.5C1.94038 7.5 2.5 8.05964 2.5 8.75C2.5 9.44036 1.94038 10 1.25 10C0.559625 10 -2.44628e-08 9.44036 -5.46392e-08 8.75C-8.48157e-08 8.05964 0.559625 7.5 1.25 7.5Z" fill="#242424"/>
<path d="M1.25 3.75C1.94037 3.75 2.5 4.30962 2.5 5C2.5 5.69037 1.94037 6.25 1.25 6.25C0.559625 6.25 -2.4462e-08 5.69037 -5.46392e-08 5C-8.48165e-08 4.30963 0.559625 3.75 1.25 3.75Z" fill="#242424"/>
<path d="M1.25 1.8974e-07C1.94038 1.59563e-07 2.5 0.559625 2.5 1.25C2.5 1.94037 1.94038 2.5 1.25 2.5C0.559625 2.5 -2.4462e-08 1.94038 -5.46392e-08 1.25C-8.48165e-08 0.559625 0.559625 2.19917e-07 1.25 1.8974e-07Z" fill="#242424"/>
</svg>
