<svg width="10" height="10" viewBox="0 0 10 10" fill="none" xmlns="http://www.w3.org/2000/svg">
<path fill-rule="evenodd" clip-rule="evenodd" d="M0.5 0C0.776142 0 1 0.223858 1 0.5V1.875L1.66495 1.27471C1.66548 1.27423 1.66601 1.27375 1.66654 1.27327C2.55081 0.481836 3.71973 0 5 0C7.76144 0 10 2.23858 10 5C10 7.76144 7.76144 10 5 10C2.61983 10 0.629173 8.33739 0.123905 6.11064C0.0627995 5.84135 0.231572 5.5735 0.500868 5.5124C0.770165 5.45129 1.03801 5.62006 1.09911 5.88936C1.5033 7.67061 3.097 9 5 9C7.20916 9 9 7.20916 9 5C9 2.79086 7.20916 1 5 1C3.97558 1 3.04214 1.38444 2.33423 2.01772L1.8 2.5H3C3.27614 2.5 3.5 2.72386 3.5 3C3.5 3.27614 3.27614 3.5 3 3.5H0.5C0.223858 3.5 0 3.27614 0 3V0.5C0 0.223858 0.223858 0 0.5 0Z" fill="#242424"/>
</svg>
