<svg width="10" height="10" viewBox="0 0 10 10" fill="none" xmlns="http://www.w3.org/2000/svg">
<path fill-rule="evenodd" clip-rule="evenodd" d="M0 5C0 2.23858 2.23858 0 5 0C5.27614 0 5.5 0.223858 5.5 0.5C5.5 0.776142 5.27614 1 5 1C2.79086 1 1 2.79086 1 5C1 6.02444 1.38445 6.95785 2.01773 7.66579C2.01796 7.66604 2.01818 7.66629 2.01841 7.66655L2.5 8.2V7C2.5 6.72386 2.72386 6.5 3 6.5C3.27614 6.5 3.5 6.72386 3.5 7V9.5C3.5 9.77614 3.27614 10 3 10H0.5C0.223858 10 0 9.77614 0 9.5C0 9.22386 0.223858 9 0.5 9H1.875L1.27471 8.33505C1.27423 8.33452 1.27375 8.33399 1.27327 8.33345C0.481839 7.44918 0 6.28029 0 5ZM6.5 0.5C6.5 0.223858 6.72386 0 7 0H9.5C9.77614 0 10 0.223858 10 0.5C10 0.776142 9.77614 1 9.5 1H8.12499L8.72529 1.66495C8.72577 1.66548 8.72624 1.66601 8.72672 1.66655C9.51814 2.5508 10 3.71973 10 5C10 7.76144 7.76144 10 5 10C4.72386 10 4.5 9.77614 4.5 9.5C4.5 9.22386 4.72386 9 5 9C7.20916 9 9 7.20916 9 5C9 3.97559 8.61554 3.04215 7.98227 2.33423C7.98204 2.33397 7.98181 2.33371 7.98158 2.33345L7.5 1.80001V3C7.5 3.27614 7.27614 3.5 7 3.5C6.72386 3.5 6.5 3.27614 6.5 3V0.5Z" fill="#242424"/>
</svg>
