<svg width="20" height="21" viewBox="0 0 20 21" fill="none" xmlns="http://www.w3.org/2000/svg">
<path fill-rule="evenodd" clip-rule="evenodd" d="M4.56221 1.01643C6.04348 0.840637 7.96115 0.724854 10 0.724854C12.0388 0.724854 13.9565 0.840637 15.4378 1.01643C16.1767 1.10411 16.8216 1.20842 17.325 1.32489C17.5758 1.38289 17.8073 1.4475 18.0051 1.52062C18.1756 1.58367 18.4216 1.68772 18.6237 1.87155C18.8145 2.04515 18.9274 2.26387 18.9873 2.39382L18.6269 2.55998L18.9873 2.39382C19.0562 2.54317 19.112 2.70362 19.1578 2.85442C19.2497 3.15703 19.3308 3.51984 19.4023 3.89604C19.5465 4.65442 19.6734 5.58327 19.7719 6.45387C19.7802 6.5266 19.7882 6.60009 19.7961 6.67433C19.8095 6.74619 19.8171 6.82029 19.8187 6.8958C19.8501 7.21342 19.8779 7.54373 19.9018 7.88408C19.9643 8.77171 20 9.73247 20 10.725C20 12.0964 19.9318 13.4093 19.8187 14.5543C19.8171 14.6295 19.8095 14.7034 19.7961 14.7751C19.7882 14.8495 19.7802 14.9232 19.7719 14.9961C19.6734 15.8666 19.5465 16.7954 19.4023 17.5537C19.3308 17.9299 19.2497 18.2927 19.1578 18.5953C19.112 18.7461 19.0562 18.9066 18.9873 19.0559C18.9274 19.1859 18.8145 19.4046 18.6237 19.5782L18.3642 19.2929L18.6237 19.5782C18.6237 19.5782 18.6237 19.5782 18.6237 19.5782C18.4216 19.762 18.1756 19.8661 18.005 19.9291C17.8073 20.0022 17.5758 20.0668 17.325 20.1248C16.8216 20.2413 16.1767 20.3456 15.4378 20.4333C13.9565 20.6091 12.0388 20.7249 10 20.7249C7.96115 20.7249 6.04348 20.6091 4.56221 20.4333C3.82333 20.3456 3.17844 20.2413 2.67496 20.1248C2.42421 20.0668 2.19265 20.0022 1.99494 19.9291C1.82441 19.8661 1.57832 19.762 1.37625 19.5781C1.1291 19.3533 0.987789 19.0402 0.910022 18.8443C0.818868 18.6148 0.741641 18.351 0.674916 18.0786C0.540715 17.5307 0.423023 16.8395 0.325278 16.0756C0.129115 14.5426 0 12.6107 0 10.725C0 9.73238 0.035753 8.77161 0.0981216 7.88404C0.18485 6.64973 0.324026 5.38752 0.493059 4.37568C0.577057 3.87286 0.672913 3.40441 0.781117 3.02255C0.834986 2.83245 0.898954 2.63846 0.976372 2.46266C1.04369 2.3098 1.16705 2.06193 1.37624 1.87161L1.64329 2.16512L1.37624 1.87161C1.57831 1.68775 1.8244 1.58368 1.99493 1.52062C2.19265 1.4475 2.4242 1.38289 2.67495 1.32489C3.17844 1.20842 3.82333 1.10411 4.56221 1.01643ZM19.0082 6.771C19.0001 6.69417 18.9918 6.6182 18.9833 6.54312L19.3776 6.49849L18.9833 6.54312C18.8859 5.68189 18.7616 4.77501 18.6226 4.04431C18.5533 3.68 18.4784 3.34857 18.3984 3.08503L18.7781 2.96973L18.3984 3.08503C18.3583 2.95321 18.3146 2.83033 18.2666 2.72614C18.2193 2.62358 18.1602 2.52287 18.0896 2.45863L18.0896 2.45861C18.0046 2.38129 17.8778 2.31974 17.7298 2.265C17.5748 2.2077 17.3785 2.15186 17.1462 2.09812C16.6812 1.99056 16.0674 1.89036 15.3443 1.80455C13.8978 1.63289 12.0117 1.5185 10 1.5185C7.98832 1.5185 6.10216 1.63289 4.65574 1.80455C3.93264 1.89036 3.31882 1.99056 2.85381 2.09812C2.62148 2.15186 2.42515 2.2077 2.27021 2.265C2.12215 2.31975 1.99533 2.38131 1.91035 2.45864L1.91035 2.45864C1.82806 2.53351 1.75888 2.65498 1.70271 2.78252C1.64558 2.91226 1.59313 3.06803 1.5447 3.23892C1.44782 3.58083 1.3576 4.01716 1.27586 4.50645C1.11202 5.48722 0.975282 6.72339 0.88982 7.93967L0.493971 7.91186L0.88982 7.93967C0.828744 8.80886 0.793651 9.75107 0.793651 10.725C0.793651 12.5784 0.920797 14.4766 1.11251 15.9749C1.20825 16.7231 1.32139 17.382 1.44578 17.8898C1.50789 18.1434 1.57505 18.3686 1.64765 18.5515C1.7185 18.7299 1.80572 18.8959 1.91035 18.9911L1.6433 19.2846L1.91036 18.9911C1.99534 19.0684 2.12215 19.13 2.27021 19.1847L2.13258 19.5569L2.27021 19.1847C2.42515 19.242 2.62148 19.2979 2.85381 19.3516C3.31883 19.4592 3.93264 19.5594 4.65574 19.6452C6.10216 19.8168 7.98832 19.9312 10 19.9312C12.0117 19.9312 13.8978 19.8168 15.3443 19.6452C16.0674 19.5594 16.6812 19.4592 17.1462 19.3516C17.3785 19.2979 17.5748 19.242 17.7298 19.1847C17.8778 19.13 18.0046 19.0684 18.0896 18.9911L18.0896 18.9911C18.1602 18.9269 18.2193 18.8262 18.2666 18.7236C18.3146 18.6194 18.3583 18.4965 18.3983 18.3647L18.7103 18.4595L18.3984 18.3647C18.4784 18.1012 18.5533 17.7698 18.6226 17.4055C18.7616 16.6748 18.8859 15.768 18.9833 14.9068C18.992 14.8304 19.0004 14.7531 19.0086 14.6749C19.0099 14.6625 19.0118 14.6502 19.0143 14.6379C19.0211 14.6041 19.0251 14.5676 19.0253 14.5291C19.0254 14.5169 19.0261 14.5047 19.0273 14.4926C19.1387 13.3705 19.2063 12.0777 19.2063 10.725C19.2063 9.75238 19.1714 8.81136 19.1104 7.94309L19.0082 6.771Z" fill="black"/>
<path fill-rule="evenodd" clip-rule="evenodd" d="M4.38281 6.28685C4.36491 6.31902 4.34116 6.37124 4.31351 6.44792C4.25769 6.60269 4.19954 6.81879 4.14316 7.08393C4.03093 7.6118 3.93471 8.29105 3.87423 8.96735L3.87423 8.96736C3.83155 9.44459 3.80692 9.96336 3.80692 10.5001C3.80692 11.5251 3.89676 12.5746 4.03025 13.3943C4.09716 13.8051 4.17336 14.1478 4.2509 14.3965C4.28984 14.5214 4.32597 14.6124 4.35647 14.6727C4.36524 14.6901 4.37236 14.7025 4.3776 14.7111C4.39513 14.7182 4.42784 14.7305 4.48143 14.7461C4.57479 14.7732 4.70228 14.8022 4.86406 14.8316C5.18676 14.8902 5.62129 14.9463 6.14207 14.9949C7.18227 15.0918 8.54447 15.1569 10 15.1569C11.4555 15.1569 12.8177 15.0918 13.8579 14.9949C14.3787 14.9463 14.8132 14.8902 15.1359 14.8316C15.2977 14.8022 15.4252 14.7732 15.5186 14.7461C15.5625 14.7333 15.5924 14.7228 15.6114 14.7154C15.6217 14.6951 15.6349 14.6658 15.6503 14.6259C15.6934 14.5146 15.7398 14.3574 15.7871 14.1619C15.8616 13.8544 15.9315 13.4801 15.9919 13.098H11.401C10.0231 13.098 8.90217 11.9372 8.90217 10.5C8.90217 9.0628 10.0231 7.90198 11.401 7.90198H15.9919C15.9315 7.51995 15.8615 7.1456 15.7871 6.83811C15.7398 6.64263 15.6934 6.48543 15.6503 6.37411C15.6349 6.33419 15.6217 6.30494 15.6114 6.28459C15.5924 6.27725 15.5625 6.26667 15.5186 6.2539C15.4252 6.22678 15.2977 6.19782 15.1359 6.16842C14.8132 6.10977 14.3787 6.05371 13.8579 6.00515C12.8177 5.90816 11.4555 5.84308 10 5.84308C8.54447 5.84308 7.18227 5.90816 6.14207 6.00515C5.62129 6.05371 5.18676 6.10977 4.86406 6.16842C4.70229 6.19782 4.57479 6.22678 4.48143 6.2539C4.43275 6.26805 4.40131 6.27951 4.38281 6.28685ZM15.5957 6.25673C15.5945 6.2551 15.5938 6.25417 15.5939 6.25411C15.5939 6.25405 15.5945 6.25487 15.5957 6.25673ZM16.8543 8.21373C16.8482 8.16847 16.842 8.1237 16.8356 8.07945C16.7642 7.58352 16.6726 7.05783 16.5694 6.63141C16.5181 6.41936 16.4612 6.22055 16.3986 6.05843C16.3673 5.97749 16.331 5.89636 16.2884 5.82375C16.2493 5.75717 16.1867 5.6657 16.0914 5.59759C15.9867 5.5228 15.8509 5.47538 15.7348 5.44165C15.6062 5.4043 15.4503 5.36981 15.2742 5.33781C14.9212 5.27366 14.4625 5.21509 13.9297 5.16541C12.8626 5.06591 11.4763 5 10 5C8.52373 5 7.13738 5.06591 6.07034 5.16541C5.53751 5.21509 5.07876 5.27366 4.72577 5.33781C4.5497 5.36981 4.39376 5.4043 4.26523 5.44165C4.14912 5.47539 4.0132 5.52281 3.90858 5.59761C3.80235 5.67355 3.73217 5.77932 3.68717 5.85961C3.63813 5.94711 3.5957 6.04726 3.55842 6.15064C3.48367 6.3579 3.41585 6.617 3.35545 6.9011C3.23413 7.47171 3.13357 8.18716 3.07081 8.88892C3.02582 9.39199 3 9.93694 3 10.5001C3 11.5708 3.0934 12.6676 3.23476 13.5357C3.30528 13.9687 3.38941 14.3553 3.48366 14.6576C3.53061 14.8083 3.58324 14.9483 3.64292 15.0664C3.69709 15.1736 3.78038 15.3108 3.90859 15.4024C4.01321 15.4772 4.14912 15.5246 4.26523 15.5584C4.39376 15.5957 4.54971 15.6302 4.72578 15.6622C5.07876 15.7264 5.53751 15.7849 6.07035 15.8346C7.13738 15.9341 8.52373 16 10 16C11.4763 16 12.8626 15.9341 13.9297 15.8346C14.4625 15.7849 14.9212 15.7264 15.2742 15.6622C15.4503 15.6302 15.6062 15.5957 15.7348 15.5584C15.8509 15.5246 15.9868 15.4772 16.0914 15.4024C16.1867 15.3343 16.2493 15.2428 16.2884 15.1763C16.331 15.1037 16.3673 15.0225 16.3985 14.9416C16.4612 14.7795 16.5181 14.5807 16.5694 14.3686C16.6726 13.9422 16.7642 13.4166 16.8356 12.9207C16.842 12.8763 16.8482 12.8315 16.8543 12.7861C16.863 12.7523 16.8677 12.7169 16.8681 12.6803C16.9502 12.03 17 11.2821 17 10.5001C17 9.93698 16.9742 9.39205 16.9292 8.88896M16.8681 8.31983C16.8678 8.28316 16.863 8.2476 16.8543 8.21373L16.8681 8.31983ZM16.1043 8.74506C16.1119 8.81801 16.119 8.89213 16.1257 8.96732L16.1257 8.9674C16.1685 9.44459 16.1931 9.96335 16.1931 10.5001C16.1931 11.122 16.16 11.7191 16.1043 12.2549H11.401C10.4643 12.2549 9.70909 11.4669 9.70909 10.5C9.70909 9.53306 10.4643 8.74506 11.401 8.74506H16.1043ZM16.9292 8.88888C16.9116 8.6926 16.8911 8.50244 16.8681 8.31983L16.9292 8.88888ZM15.5939 14.7459C15.5938 14.7459 15.5944 14.7449 15.5957 14.7433C15.5945 14.7451 15.5939 14.7459 15.5939 14.7459ZM4.39639 6.26471C4.39702 6.26384 4.39735 6.26344 4.39735 6.26346C4.39735 6.26348 4.39704 6.26391 4.39639 6.26471ZM11.3887 10.0785C11.6116 10.0785 11.7922 10.2672 11.7922 10.5V10.5073C11.7922 10.7401 11.6116 10.9288 11.3887 10.9288C11.1659 10.9288 10.9853 10.7401 10.9853 10.5073V10.5C10.9853 10.2672 11.1659 10.0785 11.3887 10.0785Z" fill="#1E1E1E"/>
</svg>
