<svg width="20" height="20" viewBox="0 0 20 20" fill="currentColor" xmlns="http://www.w3.org/2000/svg">
<path fill-rule="evenodd" clip-rule="evenodd" d="M4.56221 0.291573C6.04348 0.115784 7.96115 0 10 0C12.0388 0 13.9565 0.115784 15.4378 0.291573C16.1767 0.37926 16.8216 0.483569 17.325 0.600034C17.5758 0.658038 17.8073 0.722649 18.0051 0.795766C18.1756 0.858819 18.4216 0.962868 18.6237 1.14669C18.8145 1.3203 18.9274 1.53902 18.9873 1.66896L18.6269 1.83512L18.9873 1.66896C19.0562 1.81832 19.112 1.97877 19.1578 2.12957C19.2497 2.43217 19.3308 2.79498 19.4023 3.17119C19.5465 3.92957 19.6734 4.85842 19.7719 5.72902C19.7802 5.80174 19.7882 5.87524 19.7961 5.94948C19.8095 6.02134 19.8171 6.09543 19.8187 6.17095C19.8501 6.48857 19.8779 6.81887 19.9018 7.15923C19.9643 8.04686 20 9.00761 20 10.0001C20 11.3715 19.9318 12.6845 19.8187 13.8294C19.8171 13.9047 19.8095 13.9786 19.7961 14.0502C19.7882 14.1247 19.7802 14.1983 19.7719 14.2712C19.6734 15.1418 19.5465 16.0705 19.4023 16.8289C19.3308 17.2051 19.2497 17.5679 19.1578 17.8705C19.112 18.0213 19.0562 18.1817 18.9873 18.3311C18.9274 18.461 18.8145 18.6797 18.6237 18.8533L18.3642 18.5681L18.6237 18.8533C18.6237 18.8533 18.6237 18.8533 18.6237 18.8533C18.4216 19.0372 18.1756 19.1412 18.005 19.2043C17.8073 19.2774 17.5758 19.342 17.325 19.4C16.8216 19.5164 16.1767 19.6208 15.4378 19.7084C13.9565 19.8842 12.0388 20 10 20C7.96115 20 6.04348 19.8842 4.56221 19.7084C3.82333 19.6208 3.17844 19.5164 2.67496 19.4C2.42421 19.342 2.19265 19.2774 1.99494 19.2043C1.82441 19.1412 1.57832 19.0371 1.37625 18.8533C1.1291 18.6284 0.987789 18.3153 0.910022 18.1195C0.818868 17.8899 0.741641 17.6262 0.674916 17.3538C0.540715 16.8059 0.423023 16.1147 0.325278 15.3508C0.129115 13.8177 0 11.8858 0 10.0001C0 9.00753 0.035753 8.04676 0.0981216 7.15919C0.18485 5.92488 0.324026 4.66267 0.493059 3.65082C0.577057 3.14801 0.672913 2.67956 0.781117 2.2977C0.834986 2.10759 0.898954 1.9136 0.976372 1.7378C1.04369 1.58495 1.16705 1.33708 1.37624 1.14675L1.64329 1.44027L1.37624 1.14675C1.57831 0.962895 1.8244 0.858828 1.99493 0.795764C2.19265 0.722648 2.4242 0.658038 2.67495 0.600034C3.17844 0.483569 3.82333 0.37926 4.56221 0.291573ZM19.0082 6.04615C19.0001 5.96932 18.9918 5.89335 18.9833 5.81827L19.3776 5.77364L18.9833 5.81826C18.8859 4.95703 18.7616 4.05015 18.6226 3.31946C18.5533 2.95515 18.4784 2.62372 18.3984 2.36018L18.7781 2.24487L18.3984 2.36018C18.3583 2.22836 18.3146 2.10548 18.2666 2.00129C18.2193 1.89872 18.1602 1.79802 18.0896 1.73377L18.0896 1.73376C18.0046 1.65644 17.8778 1.59489 17.7298 1.54015C17.5748 1.48285 17.3785 1.42701 17.1462 1.37327C16.6812 1.2657 16.0674 1.16551 15.3443 1.07969C13.8978 0.90804 12.0117 0.793651 10 0.793651C7.98832 0.793651 6.10216 0.90804 4.65574 1.07969C3.93264 1.16551 3.31882 1.2657 2.85381 1.37327C2.62148 1.42701 2.42515 1.48285 2.27021 1.54015C2.12215 1.5949 1.99533 1.65646 1.91035 1.73378L1.91035 1.73379C1.82806 1.80865 1.75888 1.93013 1.70271 2.05767C1.64558 2.18741 1.59313 2.34317 1.5447 2.51407C1.44782 2.85598 1.3576 3.29231 1.27586 3.78159C1.11202 4.76236 0.975282 5.99853 0.88982 7.21482L0.493971 7.18701L0.88982 7.21482C0.828743 8.08401 0.793651 9.02622 0.793651 10.0001C0.793651 11.8536 0.920797 13.7518 1.11251 15.25C1.20825 15.9982 1.32139 16.6571 1.44578 17.1649C1.50789 17.4185 1.57505 17.6438 1.64765 17.8266C1.7185 18.005 1.80572 18.171 1.91035 18.2662L1.6433 18.5598L1.91036 18.2662C1.99534 18.3436 2.12215 18.4051 2.27021 18.4599L2.13258 18.8321L2.27021 18.4599C2.42515 18.5172 2.62148 18.573 2.85381 18.6267C3.31882 18.7343 3.93264 18.8345 4.65574 18.9203C6.10216 19.092 7.98832 19.2063 10 19.2063C12.0117 19.2063 13.8978 19.092 15.3443 18.9203C16.0674 18.8345 16.6812 18.7343 17.1462 18.6267C17.3785 18.573 17.5748 18.5172 17.7298 18.4599C17.8778 18.4051 18.0046 18.3436 18.0896 18.2663L18.0896 18.2663C18.1602 18.202 18.2193 18.1013 18.2666 17.9987C18.3146 17.8946 18.3583 17.7717 18.3984 17.6399L18.7103 17.7346L18.3984 17.6399C18.4784 17.3763 18.5533 17.0449 18.6226 16.6806C18.7616 15.95 18.8859 15.0431 18.9833 14.1819C18.992 14.1056 19.0004 14.0283 19.0086 13.9501C19.0099 13.9377 19.0118 13.9253 19.0143 13.9131C19.0211 13.8792 19.0251 13.8428 19.0253 13.8043C19.0254 13.7921 19.0261 13.7799 19.0273 13.7677C19.1387 12.6457 19.2063 11.3528 19.2063 10.0001C19.2063 9.02753 19.1714 8.08651 19.1104 7.21824L19.0082 6.04615Z" fill="currentColor"/>
<path fill-rule="evenodd" clip-rule="evenodd" d="M4.8797 7.20612C4.8871 6.23223 5.02741 5.78241 5.26987 5.54268C5.5208 5.29458 5.99855 5.15453 7.04268 5.15453H13.556C14.6033 5.15453 15.0826 5.29462 15.3342 5.54297C15.5771 5.78265 15.7174 6.23221 15.7248 7.20612H4.8797ZM4 7.64581V7.28851C4 6.26187 4.11959 5.44335 4.65158 4.91735C5.18184 4.39306 6.00558 4.27515 7.04268 4.27515H13.556C14.5958 4.27515 15.4209 4.39301 15.9519 4.91706C16.485 5.44312 16.6045 6.26191 16.6045 7.28851V7.64581V12.1017C16.6045 13.1283 16.4849 13.9469 15.953 14.4729C15.4227 14.9972 14.599 15.1151 13.5619 15.1151L7.04392 15.1151L7.04353 15.1151C6.00668 15.118 5.18258 15.002 4.65188 14.4783C4.11951 13.9529 4 13.134 4 12.1076V7.64581ZM15.7252 8.08551V12.1017C15.7252 13.1328 15.5839 13.6011 15.3347 13.8475C15.0837 14.0956 14.606 14.2357 13.5619 14.2357H7.04268L7.04144 14.2357C5.99725 14.2386 5.52 14.0995 5.26958 13.8524C5.02076 13.6068 4.87939 13.1389 4.87939 12.1076V8.08551H15.7252ZM6.78468 11.8962C6.54184 11.8962 6.34499 12.093 6.34499 12.3359C6.34499 12.5787 6.54184 12.7756 6.78468 12.7756H7.95719C8.20003 12.7756 8.39689 12.5787 8.39689 12.3359C8.39689 12.093 8.20003 11.8962 7.95719 11.8962H6.78468ZM8.98294 12.3359C8.98294 12.093 9.1798 11.8962 9.42264 11.8962H11.7677C12.0105 11.8962 12.2074 12.093 12.2074 12.3359C12.2074 12.5787 12.0105 12.7756 11.7677 12.7756H9.42264C9.1798 12.7756 8.98294 12.5787 8.98294 12.3359Z" fill="currentColor"/>
</svg>
