<svg width="14" height="15" viewBox="0 0 14 15" fill="currentColor" xmlns="http://www.w3.org/2000/svg">
<path fill-rule="evenodd" clip-rule="evenodd" d="M5.26235 1.83936C5.10676 1.79767 4.89605 1.79166 4.2 1.79166H3.85C3.35119 1.79166 3.01213 1.79203 2.74862 1.81001C2.4914 1.82756 2.35769 1.85952 2.26424 1.89822C1.92121 2.04031 1.64866 2.31286 1.50657 2.65589C1.46786 2.74934 1.43591 2.88305 1.41836 3.14026C1.40038 3.40377 1.4 3.74282 1.4 4.24163V10.5416C1.4 11.0404 1.40038 11.3794 1.41836 11.6429C1.43591 11.9001 1.46786 12.0339 1.50658 12.1274C1.64869 12.4704 1.92124 12.7429 2.26418 12.8849L2.26428 12.885C2.35772 12.9237 2.49142 12.9556 2.74863 12.9732C3.01213 12.9912 3.35118 12.9915 3.85 12.9915H4.2C4.89604 12.9915 5.10677 12.9855 5.26239 12.9438C5.74546 12.8144 6.12284 12.437 6.2523 11.954C6.29399 11.7984 6.3 11.5876 6.3 10.8916C6.3 10.505 6.6134 10.1916 7 10.1916C7.3866 10.1916 7.7 10.505 7.7 10.8916C7.7 10.9241 7.70002 10.9562 7.70003 10.9879C7.70034 11.5447 7.70056 11.9581 7.60462 12.3162L7.60461 12.3163C7.3457 13.2825 6.59092 14.0372 5.6247 14.2961L5.62466 14.2962C5.26652 14.3921 4.85308 14.3919 4.2963 14.3916C4.26467 14.3916 4.23257 14.3915 4.2 14.3915H3.826C3.35715 14.3915 2.97014 14.3915 2.65332 14.3699C2.32481 14.3475 2.02093 14.2995 1.72845 14.1784C1.04234 13.8942 0.497303 13.3491 0.213147 12.6631L0.213121 12.6631C0.0919924 12.3706 0.044019 12.0667 0.0216054 11.7382C-1.11651e-05 11.4214 -6.03699e-06 11.0344 2.11481e-07 10.5656V4.21765C-6.03699e-06 3.74879 -1.11651e-05 3.36179 0.0216055 3.04496C0.0440187 2.71647 0.0919921 2.41261 0.213137 2.12014C0.497318 1.43407 1.04241 0.888982 1.72849 0.604803C2.02096 0.48366 2.32483 0.435687 2.65332 0.413274C2.97015 0.391658 3.35716 0.391663 3.82601 0.391669L4.2 0.391669C4.23258 0.391669 4.26467 0.391652 4.2963 0.391635C4.85307 0.391333 5.26654 0.391109 5.62469 0.487073C6.5909 0.745974 7.3457 1.50069 7.60461 2.46695L7.60462 2.46699C7.70056 2.82512 7.70034 3.23856 7.70003 3.79533C7.70002 3.82696 7.7 3.85906 7.7 3.89164C7.7 4.27823 7.3866 4.59163 7 4.59163C6.6134 4.59163 6.3 4.27823 6.3 3.89164C6.3 3.1956 6.29399 2.98487 6.2523 2.82926C6.12284 2.34617 5.74546 1.96881 5.26235 1.83936ZM9.30503 3.39667C9.57839 3.1233 10.0216 3.1233 10.295 3.39667L13.795 6.89663C14.0683 7.17 14.0683 7.61321 13.795 7.88657L10.295 11.3865C10.0216 11.6599 9.57839 11.6599 9.30503 11.3865C9.03166 11.1132 9.03166 10.67 9.30503 10.3966L11.6101 8.09159H4.9C4.5134 8.09159 4.2 7.7782 4.2 7.3916C4.2 7.00501 4.5134 6.69161 4.9 6.69161H11.6101L9.30503 4.3866C9.03166 4.11324 9.03166 3.67003 9.30503 3.39667Z" fill="currentColor"/>
</svg>
