<svg width="20" height="21" viewBox="0 0 20 21" fill="none" xmlns="http://www.w3.org/2000/svg">
<path fill-rule="evenodd" clip-rule="evenodd" d="M4.56221 0.56672C6.04348 0.39093 7.96115 0.275146 10 0.275146C12.0388 0.275146 13.9565 0.39093 15.4378 0.56672C16.1767 0.654406 16.8216 0.758716 17.325 0.875181C17.5758 0.933184 17.8073 0.997795 18.0051 1.07091C18.1756 1.13397 18.4216 1.23801 18.6237 1.42184C18.8145 1.59545 18.9274 1.81417 18.9873 1.94411L18.6269 2.11027L18.9873 1.94411C19.0562 2.09347 19.112 2.25391 19.1578 2.40471C19.2497 2.70732 19.3308 3.07013 19.4023 3.44633C19.5465 4.20471 19.6734 5.13357 19.7719 6.00416C19.7802 6.07689 19.7882 6.15039 19.7961 6.22463C19.8095 6.29649 19.8171 6.37058 19.8187 6.4461C19.8501 6.76372 19.8779 7.09402 19.9018 7.43437C19.9643 8.322 20 9.28276 20 10.2753C20 11.6467 19.9318 12.9596 19.8187 14.1045C19.8171 14.1798 19.8095 14.2537 19.7961 14.3254C19.7882 14.3998 19.7802 14.4735 19.7719 14.5464C19.6734 15.4169 19.5465 16.3457 19.4023 17.104C19.3308 17.4802 19.2497 17.843 19.1578 18.1456C19.112 18.2964 19.0562 18.4569 18.9873 18.6062C18.9274 18.7362 18.8145 18.9549 18.6237 19.1285L18.3642 18.8432L18.6237 19.1285C18.6237 19.1285 18.6237 19.1285 18.6237 19.1285C18.4216 19.3123 18.1756 19.4164 18.005 19.4794C17.8073 19.5525 17.5758 19.6171 17.325 19.6751C16.8216 19.7916 16.1767 19.8959 15.4378 19.9836C13.9565 20.1594 12.0388 20.2751 10 20.2751C7.96115 20.2751 6.04348 20.1594 4.56221 19.9836C3.82333 19.8959 3.17844 19.7916 2.67496 19.6751C2.42421 19.6171 2.19265 19.5525 1.99494 19.4794C1.82441 19.4163 1.57832 19.3123 1.37625 19.1284C1.1291 18.9036 0.987789 18.5905 0.910022 18.3946C0.818868 18.1651 0.741641 17.9013 0.674916 17.6289C0.540715 17.081 0.423023 16.3898 0.325278 15.6259C0.129115 14.0929 0 12.161 0 10.2753C0 9.28268 0.035753 8.32191 0.0981216 7.43434C0.18485 6.20003 0.324026 4.93782 0.493059 3.92597C0.577057 3.42315 0.672913 2.9547 0.781117 2.57284C0.834986 2.38274 0.898954 2.18875 0.976372 2.01295C1.04369 1.8601 1.16705 1.61223 1.37624 1.4219L1.64329 1.71541L1.37624 1.4219C1.57831 1.23804 1.8244 1.13397 1.99493 1.07091C2.19265 0.997794 2.4242 0.933184 2.67495 0.87518C3.17844 0.758716 3.82333 0.654406 4.56221 0.56672ZM19.0082 6.3213C19.0001 6.24447 18.9918 6.16849 18.9833 6.09341L19.3776 6.04879L18.9833 6.09341C18.8859 5.23218 18.7616 4.3253 18.6226 3.5946C18.5533 3.2303 18.4784 2.89887 18.3984 2.63533L18.7781 2.52002L18.3984 2.63532C18.3583 2.5035 18.3146 2.38063 18.2666 2.27643C18.2193 2.17387 18.1602 2.07316 18.0896 2.00892L18.0896 2.0089C18.0046 1.93159 17.8778 1.87003 17.7298 1.81529C17.5748 1.75799 17.3785 1.70216 17.1462 1.64841C16.6812 1.54085 16.0674 1.44065 15.3443 1.35484C13.8978 1.18319 12.0117 1.0688 10 1.0688C7.98832 1.0688 6.10216 1.18319 4.65574 1.35484C3.93264 1.44065 3.31882 1.54085 2.85381 1.64841C2.62148 1.70216 2.42515 1.75799 2.27021 1.81529C2.12215 1.87004 1.99533 1.93161 1.91035 2.00893L1.91035 2.00893C1.82806 2.0838 1.75888 2.20527 1.70271 2.33281C1.64558 2.46256 1.59313 2.61832 1.5447 2.78922C1.44782 3.13113 1.3576 3.56746 1.27586 4.05674C1.11202 5.03751 0.975282 6.27368 0.88982 7.48997L0.493971 7.46215L0.88982 7.48997C0.828743 8.35915 0.793651 9.30137 0.793651 10.2753C0.793651 12.1287 0.920797 14.0269 1.11251 15.5252C1.20825 16.2734 1.32139 16.9323 1.44578 17.4401C1.50789 17.6937 1.57505 17.9189 1.64765 18.1017C1.7185 18.2802 1.80572 18.4462 1.91035 18.5414L1.6433 18.8349L1.91036 18.5414C1.99534 18.6187 2.12215 18.6803 2.27021 18.735L2.13258 19.1072L2.27021 18.735C2.42515 18.7923 2.62148 18.8482 2.85381 18.9019C3.31882 19.0095 3.93264 19.1096 4.65574 19.1955C6.10216 19.3671 7.98832 19.4815 10 19.4815C12.0117 19.4815 13.8978 19.3671 15.3443 19.1955C16.0674 19.1096 16.6812 19.0095 17.1462 18.9019C17.3785 18.8482 17.5748 18.7923 17.7298 18.735C17.8778 18.6803 18.0046 18.6187 18.0896 18.5414L18.0896 18.5414C18.1602 18.4772 18.2193 18.3764 18.2666 18.2739C18.3146 18.1697 18.3583 18.0468 18.3984 17.915L18.7103 18.0097L18.3984 17.915C18.4784 17.6515 18.5533 17.3201 18.6226 16.9558C18.7616 16.2251 18.8859 15.3183 18.9833 14.4571C18.992 14.3807 19.0004 14.3034 19.0086 14.2252C19.0099 14.2128 19.0118 14.2005 19.0143 14.1882C19.0211 14.1544 19.0251 14.1179 19.0253 14.0794C19.0254 14.0672 19.0261 14.055 19.0273 14.0429C19.1387 12.9208 19.2063 11.628 19.2063 10.2753C19.2063 9.30267 19.1714 8.36165 19.1104 7.49338L19.0082 6.3213Z" fill="currentColor"/>
<path d="M4.43782 7.06382L10 3.8525L15.5622 7.06382V13.4865L10 16.6978L4.43782 13.4865V7.06382Z" stroke="black"/>
<circle cx="10" cy="10.2751" r="2.5" stroke="black"/>
</svg>