<svg width="16" height="16" viewBox="0 0 16 16" fill="currentColor" xmlns="http://www.w3.org/2000/svg">
<path d="M10.9993 6.53418C11.2173 6.31624 11.2173 5.96284 10.9993 5.74487C10.7813 5.52691 10.428 5.52691 10.21 5.74487L6.88374 9.07111L5.79004 7.97745C5.57207 7.75948 5.21867 7.75948 5.00071 7.97745C4.78274 8.19542 4.78274 8.54876 5.00071 8.76674L6.48908 10.2551C6.70707 10.4731 7.06041 10.4731 7.27839 10.2551L10.9993 6.53418Z" fill="currentColor"/>
<path fill-rule="evenodd" clip-rule="evenodd" d="M8 0C3.58172 0 0 3.58172 0 8C0 12.4183 3.58172 16 8 16C12.4183 16 16 12.4183 16 8C16 3.58172 12.4183 0 8 0ZM1.11628 8C1.11628 4.19823 4.19823 1.11628 8 1.11628C11.8017 1.11628 14.8837 4.19823 14.8837 8C14.8837 11.8017 11.8017 14.8837 8 14.8837C4.19823 14.8837 1.11628 11.8017 1.11628 8Z" fill="currentColor"/>
</svg>
