<svg width="20" height="20" viewBox="0 0 20 20" fill="none" xmlns="http://www.w3.org/2000/svg">
<path fill-rule="evenodd" clip-rule="evenodd" d="M4.56221 0.291573C6.04348 0.115784 7.96115 0 10 0C12.0388 0 13.9565 0.115784 15.4378 0.291573C16.1767 0.37926 16.8216 0.483569 17.325 0.600034C17.5758 0.658038 17.8073 0.722649 18.0051 0.795766C18.1756 0.858819 18.4216 0.962868 18.6237 1.14669C18.8145 1.3203 18.9274 1.53902 18.9873 1.66896L18.6269 1.83512L18.9873 1.66896C19.0562 1.81832 19.112 1.97877 19.1578 2.12957C19.2497 2.43217 19.3308 2.79498 19.4023 3.17119C19.5465 3.92957 19.6734 4.85842 19.7719 5.72902C19.7802 5.80174 19.7882 5.87524 19.7961 5.94948C19.8095 6.02134 19.8171 6.09543 19.8187 6.17095C19.8501 6.48857 19.8779 6.81887 19.9018 7.15923C19.9643 8.04686 20 9.00761 20 10.0001C20 11.3715 19.9318 12.6845 19.8187 13.8294C19.8171 13.9047 19.8095 13.9786 19.7961 14.0502C19.7882 14.1247 19.7802 14.1983 19.7719 14.2712C19.6734 15.1418 19.5465 16.0705 19.4023 16.8289C19.3308 17.2051 19.2497 17.5679 19.1578 17.8705C19.112 18.0213 19.0562 18.1817 18.9873 18.3311C18.9274 18.461 18.8145 18.6797 18.6237 18.8533L18.3642 18.5681L18.6237 18.8533C18.6237 18.8533 18.6237 18.8533 18.6237 18.8533C18.4216 19.0372 18.1756 19.1412 18.005 19.2043C17.8073 19.2774 17.5758 19.342 17.325 19.4C16.8216 19.5164 16.1767 19.6208 15.4378 19.7084C13.9565 19.8842 12.0388 20 10 20C7.96115 20 6.04348 19.8842 4.56221 19.7084C3.82333 19.6208 3.17844 19.5164 2.67496 19.4C2.42421 19.342 2.19265 19.2774 1.99494 19.2043C1.82441 19.1412 1.57832 19.0371 1.37625 18.8533C1.1291 18.6284 0.987789 18.3153 0.910022 18.1195C0.818868 17.8899 0.741641 17.6262 0.674916 17.3538C0.540715 16.8059 0.423023 16.1147 0.325278 15.3508C0.129115 13.8177 0 11.8858 0 10.0001C0 9.00753 0.035753 8.04676 0.0981216 7.15919C0.18485 5.92488 0.324026 4.66267 0.493059 3.65082C0.577057 3.14801 0.672913 2.67956 0.781117 2.2977C0.834986 2.10759 0.898954 1.9136 0.976372 1.7378C1.04369 1.58495 1.16705 1.33708 1.37624 1.14675L1.64329 1.44027L1.37624 1.14675C1.57831 0.962895 1.8244 0.858828 1.99493 0.795764C2.19265 0.722648 2.4242 0.658038 2.67495 0.600034C3.17844 0.483569 3.82333 0.37926 4.56221 0.291573ZM19.0082 6.04615C19.0001 5.96932 18.9918 5.89335 18.9833 5.81827L19.3776 5.77364L18.9833 5.81826C18.8859 4.95703 18.7616 4.05015 18.6226 3.31946C18.5533 2.95515 18.4784 2.62372 18.3984 2.36018L18.7781 2.24487L18.3984 2.36018C18.3583 2.22836 18.3146 2.10548 18.2666 2.00129C18.2193 1.89872 18.1602 1.79802 18.0896 1.73377L18.0896 1.73376C18.0046 1.65644 17.8778 1.59489 17.7298 1.54015C17.5748 1.48285 17.3785 1.42701 17.1462 1.37327C16.6812 1.2657 16.0674 1.16551 15.3443 1.07969C13.8978 0.90804 12.0117 0.793651 10 0.793651C7.98832 0.793651 6.10216 0.90804 4.65574 1.07969C3.93264 1.16551 3.31882 1.2657 2.85381 1.37327C2.62148 1.42701 2.42515 1.48285 2.27021 1.54015C2.12215 1.5949 1.99533 1.65646 1.91035 1.73378L1.91035 1.73379C1.82806 1.80865 1.75888 1.93013 1.70271 2.05767C1.64558 2.18741 1.59313 2.34317 1.5447 2.51407C1.44782 2.85598 1.3576 3.29231 1.27586 3.78159C1.11202 4.76236 0.975282 5.99853 0.88982 7.21482L0.493971 7.18701L0.88982 7.21482C0.828743 8.08401 0.793651 9.02622 0.793651 10.0001C0.793651 11.8536 0.920797 13.7518 1.11251 15.25C1.20825 15.9982 1.32139 16.6571 1.44578 17.1649C1.50789 17.4185 1.57505 17.6438 1.64765 17.8266C1.7185 18.005 1.80572 18.171 1.91035 18.2662L1.6433 18.5598L1.91036 18.2662C1.99534 18.3436 2.12215 18.4051 2.27021 18.4599L2.13258 18.8321L2.27021 18.4599C2.42515 18.5172 2.62148 18.573 2.85381 18.6267C3.31882 18.7343 3.93264 18.8345 4.65574 18.9203C6.10216 19.092 7.98832 19.2063 10 19.2063C12.0117 19.2063 13.8978 19.092 15.3443 18.9203C16.0674 18.8345 16.6812 18.7343 17.1462 18.6267C17.3785 18.573 17.5748 18.5172 17.7298 18.4599C17.8778 18.4051 18.0046 18.3436 18.0896 18.2663L18.0896 18.2663C18.1602 18.202 18.2193 18.1013 18.2666 17.9987C18.3146 17.8946 18.3583 17.7717 18.3984 17.6399L18.7103 17.7346L18.3984 17.6399C18.4784 17.3763 18.5533 17.0449 18.6226 16.6806C18.7616 15.95 18.8859 15.0431 18.9833 14.1819C18.992 14.1056 19.0004 14.0283 19.0086 13.9501C19.0099 13.9377 19.0118 13.9253 19.0143 13.9131C19.0211 13.8792 19.0251 13.8428 19.0253 13.8043C19.0254 13.7921 19.0261 13.7799 19.0273 13.7677C19.1387 12.6457 19.2063 11.3528 19.2063 10.0001C19.2063 9.02753 19.1714 8.08651 19.1104 7.21824L19.0082 6.04615Z" fill="black"/>
<path fill-rule="evenodd" clip-rule="evenodd" d="M9.625 7.70372C9.89128 7.70372 10.1071 7.8836 10.1071 8.1055V10.0819L11.5731 11.3035C11.7614 11.4604 11.7614 11.7148 11.5731 11.8718C11.3848 12.0287 11.0795 12.0287 10.8912 11.8718L9.28407 10.5325C9.19365 10.4571 9.14286 10.3549 9.14286 10.2484V8.1055C9.14286 7.8836 9.35872 7.70372 9.625 7.70372Z" fill="#1E1E1E"/>
<path d="M5.28483 7.1186L4.8233 7.12092C4.82457 7.374 5.02942 7.57886 5.28251 7.58013L5.28483 7.1186ZM6.849 7.588C7.1039 7.58928 7.31158 7.38369 7.31286 7.12879C7.31414 6.87389 7.10854 6.66622 6.85364 6.66494L6.849 7.588ZM5.73849 5.54979C5.73721 5.29489 5.52954 5.08929 5.27464 5.09057C5.01974 5.09185 4.81414 5.29953 4.81543 5.55442L5.73849 5.54979ZM4.92308 10.2751C4.92308 10.0203 4.71644 9.81361 4.46154 9.81361C4.20664 9.81361 4 10.0203 4 10.2751H4.92308ZM13.0003 15.4722C13.221 15.3446 13.2964 15.0622 13.1687 14.8415C13.0411 14.6209 12.7588 14.5455 12.5382 14.6732L13.0003 15.4722ZM14.398 12.8133C14.2703 13.0339 14.3458 13.3163 14.5664 13.4439C14.7871 13.5715 15.0694 13.4961 15.197 13.2755L14.398 12.8133ZM5.77866 6.01131C5.59753 6.19065 5.59607 6.48288 5.77542 6.66401C5.95476 6.84515 6.24698 6.8466 6.42812 6.66726L5.77866 6.01131ZM14.223 6.05229C11.8721 3.7014 8.07312 3.6776 5.73778 6.01293L6.3905 6.66565C8.35918 4.69696 11.5737 4.7084 13.5703 6.70501L14.223 6.05229ZM5.73778 6.01293L4.95847 6.79224L5.61119 7.44496L6.3905 6.66565L5.73778 6.01293ZM5.28251 7.58013L6.849 7.588L6.85364 6.66494L5.28715 6.65707L5.28251 7.58013ZM5.74636 7.11628L5.73849 5.54979L4.81543 5.55442L4.8233 7.12092L5.74636 7.11628ZM10 5.19822C12.8039 5.19822 15.0769 7.47124 15.0769 10.2751H16C16 6.96144 13.3137 4.27515 10 4.27515V5.19822ZM10 15.3521C7.19609 15.3521 4.92308 13.079 4.92308 10.2751H4C4 13.5889 6.68629 16.2751 10 16.2751V15.3521ZM12.5382 14.6732C11.7919 15.1049 10.9255 15.3521 10 15.3521V16.2751C11.0921 16.2751 12.1174 15.983 13.0003 15.4722L12.5382 14.6732ZM15.0769 10.2751C15.0769 11.2006 14.8297 12.067 14.398 12.8133L15.197 13.2755C15.7078 12.3925 16 11.3673 16 10.2751H15.0769ZM6.42812 6.66726C7.34589 5.75859 8.60705 5.19822 10 5.19822V4.27515C8.3541 4.27515 6.86223 4.93848 5.77866 6.01131L6.42812 6.66726Z" fill="#1E1E1E"/>
</svg>
