<svg width="18" height="19" viewBox="0 0 18 19" fill="none" xmlns="http://www.w3.org/2000/svg">
<path d="M14.625 12.875C14.2277 12.8769 13.8386 12.9878 13.5 13.1956L11.7619 11.4519C12.1663 10.8814 12.3835 10.1993 12.3835 9.5C12.3835 8.80068 12.1663 8.11863 11.7619 7.54813L13.5 5.80438C13.8386 6.01216 14.2277 6.12306 14.625 6.125C15.07 6.125 15.505 5.99304 15.875 5.74581C16.245 5.49857 16.5334 5.14717 16.7037 4.73604C16.874 4.32491 16.9186 3.87251 16.8318 3.43605C16.745 2.99959 16.5307 2.59868 16.216 2.28401C15.9013 1.96934 15.5004 1.75505 15.064 1.66823C14.6275 1.58142 14.1751 1.62597 13.764 1.79627C13.3528 1.96657 13.0014 2.25496 12.7542 2.62497C12.507 2.99498 12.375 3.42999 12.375 3.875C12.3769 4.27227 12.4878 4.6614 12.6956 5L10.9519 6.73813C10.3814 6.33369 9.69932 6.11645 9 6.11645C8.30068 6.11645 7.61863 6.33369 7.04813 6.73813L5.30438 5C5.51216 4.6614 5.62306 4.27227 5.625 3.875C5.625 3.42999 5.49304 2.99498 5.24581 2.62497C4.99857 2.25496 4.64717 1.96657 4.23604 1.79627C3.82491 1.62597 3.37251 1.58142 2.93605 1.66823C2.49959 1.75505 2.09868 1.96934 1.78401 2.28401C1.46934 2.59868 1.25505 2.99959 1.16823 3.43605C1.08142 3.87251 1.12597 4.32491 1.29627 4.73604C1.46657 5.14717 1.75496 5.49857 2.12497 5.74581C2.49498 5.99304 2.92999 6.125 3.375 6.125C3.77227 6.12306 4.1614 6.01216 4.5 5.80438L6.23813 7.54813C5.83369 8.11863 5.61645 8.80068 5.61645 9.5C5.61645 10.1993 5.83369 10.8814 6.23813 11.4519L4.5 13.1956C4.1614 12.9878 3.77227 12.8769 3.375 12.875C2.92999 12.875 2.49498 13.007 2.12497 13.2542C1.75496 13.5014 1.46657 13.8528 1.29627 14.264C1.12597 14.6751 1.08142 15.1275 1.16823 15.564C1.25505 16.0004 1.46934 16.4013 1.78401 16.716C2.09868 17.0307 2.49959 17.245 2.93605 17.3318C3.37251 17.4186 3.82491 17.374 4.23604 17.2037C4.64717 17.0334 4.99857 16.745 5.24581 16.375C5.49304 16.005 5.625 15.57 5.625 15.125C5.62306 14.7277 5.51216 14.3386 5.30438 14L7.04813 12.2619C7.61863 12.6663 8.30068 12.8835 9 12.8835C9.69932 12.8835 10.3814 12.6663 10.9519 12.2619L12.6956 14C12.4878 14.3386 12.3769 14.7277 12.375 15.125C12.375 15.57 12.507 16.005 12.7542 16.375C13.0014 16.745 13.3528 17.0334 13.764 17.2037C14.1751 17.374 14.6275 17.4186 15.064 17.3318C15.5004 17.245 15.9013 17.0307 16.216 16.716C16.5307 16.4013 16.745 16.0004 16.8318 15.564C16.9186 15.1275 16.874 14.6751 16.7037 14.264C16.5334 13.8528 16.245 13.5014 15.875 13.2542C15.505 13.007 15.07 12.875 14.625 12.875ZM14.625 2.75C14.8475 2.75 15.065 2.81598 15.25 2.9396C15.435 3.06321 15.5792 3.23892 15.6644 3.44448C15.7495 3.65005 15.7718 3.87625 15.7284 4.09448C15.685 4.31271 15.5778 4.51316 15.4205 4.6705C15.2632 4.82783 15.0627 4.93498 14.8445 4.97838C14.6263 5.02179 14.4001 4.99951 14.1945 4.91437C13.9889 4.82922 13.8132 4.68502 13.6896 4.50002C13.566 4.31501 13.5 4.09751 13.5 3.875C13.5 3.57663 13.6185 3.29048 13.8295 3.07951C14.0405 2.86853 14.3266 2.75 14.625 2.75ZM2.25 3.875C2.25 3.6525 2.31598 3.43499 2.4396 3.24998C2.56321 3.06498 2.73892 2.92079 2.94448 2.83564C3.15005 2.75049 3.37625 2.72821 3.59448 2.77162C3.81271 2.81503 4.01316 2.92217 4.1705 3.07951C4.32783 3.23684 4.43498 3.4373 4.47838 3.65552C4.52179 3.87375 4.49951 4.09995 4.41437 4.30552C4.32922 4.51109 4.18502 4.68679 4.00002 4.8104C3.81501 4.93402 3.59751 5 3.375 5C3.07663 5 2.79048 4.88148 2.57951 4.6705C2.36853 4.45952 2.25 4.17337 2.25 3.875ZM3.375 16.25C3.1525 16.25 2.93499 16.184 2.74998 16.0604C2.56498 15.9368 2.42079 15.7611 2.33564 15.5555C2.25049 15.35 2.22821 15.1238 2.27162 14.9055C2.31503 14.6873 2.42217 14.4868 2.57951 14.3295C2.73684 14.1722 2.9373 14.065 3.15552 14.0216C3.37375 13.9782 3.59995 14.0005 3.80552 14.0856C4.01109 14.1708 4.18679 14.315 4.3104 14.5C4.43402 14.685 4.5 14.9025 4.5 15.125C4.5 15.4234 4.38148 15.7095 4.1705 15.9205C3.95952 16.1315 3.67337 16.25 3.375 16.25ZM9 11.75C8.55499 11.75 8.11998 11.618 7.74997 11.3708C7.37996 11.1236 7.09157 10.7722 6.92127 10.361C6.75098 9.94991 6.70642 9.49751 6.79323 9.06105C6.88005 8.62459 7.09434 8.22368 7.40901 7.90901C7.72368 7.59434 8.12459 7.38005 8.56105 7.29323C8.99751 7.20642 9.44991 7.25098 9.86104 7.42127C10.2722 7.59157 10.6236 7.87996 10.8708 8.24997C11.118 8.61998 11.25 9.05499 11.25 9.5C11.25 10.0967 11.0129 10.669 10.591 11.091C10.169 11.5129 9.59674 11.75 9 11.75ZM14.625 16.25C14.4025 16.25 14.185 16.184 14 16.0604C13.815 15.9368 13.6708 15.7611 13.5856 15.5555C13.5005 15.35 13.4782 15.1238 13.5216 14.9055C13.565 14.6873 13.6722 14.4868 13.8295 14.3295C13.9868 14.1722 14.1873 14.065 14.4055 14.0216C14.6238 13.9782 14.85 14.0005 15.0555 14.0856C15.2611 14.1708 15.4368 14.315 15.5604 14.5C15.684 14.685 15.75 14.9025 15.75 15.125C15.75 15.4234 15.6315 15.7095 15.4205 15.9205C15.2095 16.1315 14.9234 16.25 14.625 16.25Z" fill="#1E1E1E"/>
</svg>
