<svg width="11" height="12" viewBox="0 0 11 12" fill="none" xmlns="http://www.w3.org/2000/svg">
<path fill-rule="evenodd" clip-rule="evenodd" d="M7.19231 2.52951e-07H4.90408C3.86739 -1.09098e-05 3.04626 -1.65254e-05 2.40363 0.0854737C1.74226 0.173448 1.20696 0.358817 0.784802 0.776506C0.36265 1.1942 0.175301 1.72385 0.086387 2.37822C-1.66297e-05 3.01406 -1.10264e-05 3.8265 2.55628e-07 4.85222V8.23256C2.55628e-07 9.27751 0.773977 10.1436 1.78567 10.3003C1.8635 10.7267 2.01245 11.0907 2.31189 11.387C2.65143 11.7229 3.07895 11.8674 3.58671 11.935C4.07577 12 4.69756 12 5.46903 12H7.22328C7.99474 12 8.61655 12 9.10563 11.935C9.61338 11.8674 10.0409 11.7229 10.3804 11.387C10.72 11.051 10.866 10.628 10.9343 10.1257C11 9.64175 11 9.02651 11 8.2632V5.41122C11 4.64793 11 4.03268 10.9343 3.54879C10.866 3.0464 10.72 2.62341 10.3804 2.28745C10.081 1.99118 9.71311 1.8438 9.28214 1.7668C9.12379 0.765796 8.24842 2.52951e-07 7.19231 2.52951e-07ZM8.39345 1.68623C8.22264 1.19231 7.74942 0.83721 7.19231 0.83721H4.9359C3.86026 0.83721 3.09608 0.838097 2.51638 0.915215C1.94884 0.990709 1.62186 1.13229 1.38312 1.3685C1.14439 1.60471 1.00129 1.92824 0.924993 2.48978C0.847051 3.06335 0.846154 3.81945 0.846154 4.88372V8.23256C0.846154 8.78378 1.20506 9.252 1.70425 9.421C1.6923 9.08059 1.6923 8.69565 1.69231 8.2632V5.41122C1.6923 4.64793 1.69229 4.03268 1.75804 3.54879C1.8263 3.0464 1.97235 2.62341 2.31189 2.28745C2.65143 1.9515 3.07895 1.807 3.58671 1.73945C4.07577 1.6744 4.69756 1.67441 5.46903 1.67442H7.22328C7.66034 1.67441 8.0494 1.67441 8.39345 1.68623ZM2.91021 2.87945C3.06633 2.72498 3.28553 2.62426 3.69945 2.5692C4.12555 2.51252 5.5 2.51163 5.5 2.51163H7.19231C8.00202 2.51163 8.56674 2.51252 8.99287 2.5692C9.40681 2.62426 9.62596 2.72498 9.7821 2.87945C9.93825 3.03392 10.04 3.2508 10.0957 3.66035C10.1529 4.08194 10.1538 4.6407 10.1538 5.44186V8.23256C10.1538 9.03371 10.1529 9.59247 10.0957 10.0141C10.04 10.4236 9.93825 10.6405 9.7821 10.795C9.62596 10.9495 9.40681 11.0502 8.99287 11.1052C8.56674 11.1619 8.00202 11.1628 7.19231 11.1628H5.5C4.69029 11.1628 4.12555 11.1619 3.69945 11.1052C3.28553 11.0502 3.06633 10.9495 2.91021 10.795C2.75409 10.6405 2.6523 10.4236 2.59665 10.0141C2.53936 9.59247 2.53846 9.03371 2.53846 8.23256V5.44186C2.53846 4.6407 2.53936 4.08194 2.59665 3.66035C2.6523 3.2508 2.75409 3.03392 2.91021 2.87945Z" fill="#242424"/>
</svg>
