<svg width="89" height="32" viewBox="0 0 89 32" fill="none" xmlns="http://www.w3.org/2000/svg">
<rect width="89" height="32" rx="5" fill="#18BC7A"/>
<path d="M28 11.9L22.5185 16.8179V20H20.2778V16.8179L15 11.9V11H28V11.9Z" stroke="white"/>
<path d="M41.2168 12.752H37.0742V15.3945H40.7246V16.4258H37.0742V20H35.9727V11.7207H41.2168V12.752ZM42.9908 12.6582C42.7916 12.6582 42.6255 12.5938 42.4927 12.4648C42.3599 12.332 42.2935 12.168 42.2935 11.9727C42.2935 11.7734 42.3599 11.6094 42.4927 11.4805C42.6255 11.3516 42.7916 11.2871 42.9908 11.2871C43.1861 11.2871 43.3482 11.3516 43.4771 11.4805C43.606 11.6094 43.6705 11.7734 43.6705 11.9727C43.6705 12.168 43.6041 12.332 43.4713 12.4648C43.3423 12.5938 43.1822 12.6582 42.9908 12.6582ZM42.4752 20V13.8828H43.5064V20H42.4752ZM45.1925 20V11.3574H46.2238V20H45.1925ZM51.4372 14.8145H49.5973V18.2012C49.5973 18.834 49.9255 19.1504 50.5817 19.1504C50.8669 19.1504 51.152 19.0742 51.4372 18.9219V19.8945C51.1286 20.0625 50.7712 20.1465 50.3649 20.1465C49.7751 20.1465 49.3278 19.9922 49.0231 19.6836C48.7184 19.375 48.5661 18.9355 48.5661 18.3652V14.8145H47.4645V13.8828H48.5661V12.2363H49.5973V13.8828H51.4372V14.8145ZM55.8186 13.7832H56.0237V14.8496H55.8186C55.1741 14.8496 54.6643 15.0391 54.2893 15.418C53.9182 15.793 53.7327 16.3008 53.7327 16.9414V20H52.7014V13.8828H53.7327V14.9375C54.2131 14.168 54.9084 13.7832 55.8186 13.7832ZM62.8133 16.9414C62.8133 17 62.8035 17.1523 62.784 17.3984H57.5164C57.6219 17.9375 57.8777 18.373 58.284 18.7051C58.6941 19.0332 59.1941 19.1973 59.784 19.1973C60.2215 19.1973 60.6238 19.1055 60.991 18.9219C61.3582 18.7344 61.6453 18.4941 61.8523 18.2012L62.5613 18.8105C62.2527 19.2246 61.8523 19.5508 61.3602 19.7891C60.8719 20.0273 60.3348 20.1465 59.7488 20.1465C58.7918 20.1465 57.9949 19.8379 57.3582 19.2207C56.7215 18.6035 56.4031 17.8359 56.4031 16.918C56.4031 16.3242 56.5418 15.7852 56.8191 15.3008C57.1004 14.8125 57.4871 14.4297 57.9793 14.1523C58.4715 13.875 59.0184 13.7363 59.6199 13.7363C60.2176 13.7363 60.7605 13.875 61.2488 14.1523C61.7371 14.4297 62.1199 14.8145 62.3973 15.3066C62.6746 15.7949 62.8133 16.3398 62.8133 16.9414ZM59.6082 14.6855C59.077 14.6855 58.618 14.8516 58.2313 15.1836C57.8445 15.5117 57.6023 15.9375 57.5047 16.4609H61.7176C61.6199 15.9297 61.3777 15.502 60.991 15.1777C60.6043 14.8496 60.1434 14.6855 59.6082 14.6855ZM67.1947 13.7832H67.3998V14.8496H67.1947C66.5502 14.8496 66.0404 15.0391 65.6654 15.418C65.2943 15.793 65.1087 16.3008 65.1087 16.9414V20H64.0775V13.8828H65.1087V14.9375C65.5892 14.168 66.2845 13.7832 67.1947 13.7832Z" fill="white"/>
</svg>
