<svg width="309" height="36" viewBox="0 0 309 36" fill="none" xmlns="http://www.w3.org/2000/svg">
<rect width="309" height="36" rx="9" fill="#202020"/>
<path fill-rule="evenodd" clip-rule="evenodd" d="M116.1 14.2352C116.1 12.9282 117.159 11.8687 118.467 11.8687C119.774 11.8687 120.833 12.9282 120.833 14.2352C120.833 15.5423 119.774 16.6018 118.467 16.6018C117.159 16.6018 116.1 15.5423 116.1 14.2352ZM111.367 18.9684C110.06 18.9684 109 20.0279 109 21.335C109 22.6421 110.06 23.7016 111.367 23.7016C112.674 23.7016 113.733 22.6421 113.733 21.335C113.733 20.0279 112.674 18.9684 111.367 18.9684ZM118.467 18.9684C117.159 18.9684 116.1 20.028 116.1 21.335C116.1 22.6421 117.159 23.7016 118.467 23.7016C119.774 23.7016 120.833 22.6421 120.833 21.335C120.833 20.028 119.774 18.9684 118.467 18.9684ZM111.367 11.9518C110.06 11.9518 109 13.0113 109 14.3184C109 15.6254 110.06 16.685 111.367 16.685C112.674 16.685 113.733 15.6254 113.733 14.3184C113.733 13.0113 112.674 11.9518 111.367 11.9518Z" fill="white"/>
<path d="M132.341 15.9023H133.591L131.418 21H130.261L128.088 15.9023H129.372L130.852 19.6182L132.341 15.9023ZM136.422 21.1221C135.644 21.1221 134.994 20.8665 134.473 20.3555C133.953 19.8444 133.692 19.2096 133.692 18.4512C133.692 17.6927 133.953 17.0579 134.473 16.5469C134.994 16.0358 135.644 15.7803 136.422 15.7803C136.929 15.7803 137.392 15.8975 137.808 16.1318C138.228 16.363 138.557 16.6836 138.795 17.0938C139.032 17.5007 139.151 17.9531 139.151 18.4512C139.151 18.9492 139.032 19.4033 138.795 19.8135C138.557 20.2204 138.228 20.541 137.808 20.7754C137.392 21.0065 136.929 21.1221 136.422 21.1221ZM135.294 19.584C135.596 19.8867 135.972 20.0381 136.422 20.0381C136.871 20.0381 137.244 19.8867 137.54 19.584C137.839 19.278 137.989 18.9004 137.989 18.4512C137.989 17.9987 137.839 17.6211 137.54 17.3184C137.244 17.0124 136.871 16.8594 136.422 16.8594C135.972 16.8594 135.596 17.0124 135.294 17.3184C134.991 17.6243 134.84 18.002 134.84 18.4512C134.84 18.9004 134.991 19.278 135.294 19.584ZM140.673 15.0381C140.472 15.0381 140.302 14.9697 140.166 14.833C140.029 14.6963 139.961 14.5286 139.961 14.3301C139.961 14.125 140.029 13.9557 140.166 13.8223C140.302 13.6888 140.472 13.6221 140.673 13.6221C140.879 13.6221 141.049 13.6888 141.186 13.8223C141.323 13.9557 141.391 14.125 141.391 14.3301C141.391 14.5319 141.323 14.7012 141.186 14.8379C141.049 14.9714 140.879 15.0381 140.673 15.0381ZM140.112 21V15.9023H141.235V21H140.112ZM145.223 15.8193H145.413V16.9717H145.223C144.728 16.9717 144.339 17.1117 144.056 17.3916C143.776 17.6683 143.636 18.0443 143.636 18.5195V21H142.513V15.9023H143.636V16.6494C144.043 16.096 144.572 15.8193 145.223 15.8193ZM150.787 21.1221C150.077 21.1221 149.506 20.9251 149.073 20.5312C148.644 20.1374 148.429 19.6165 148.429 18.9688V15.9023H149.547V18.8223C149.547 19.1868 149.661 19.4814 149.889 19.7061C150.117 19.9274 150.416 20.0381 150.787 20.0381C151.158 20.0381 151.456 19.9274 151.681 19.7061C151.905 19.4847 152.018 19.1901 152.018 18.8223V15.9023H153.136V18.9688C153.136 19.6165 152.921 20.1374 152.491 20.5312C152.062 20.9251 151.493 21.1221 150.787 21.1221ZM157.368 16.918H155.928V19.3301C155.928 19.5645 155.991 19.7419 156.118 19.8623C156.248 19.9795 156.432 20.0381 156.67 20.0381C156.894 20.0381 157.127 19.9795 157.368 19.8623V20.9121C157.091 21.0521 156.78 21.1221 156.435 21.1221C155.898 21.1221 155.493 20.9805 155.22 20.6973C154.946 20.4141 154.809 20.0186 154.809 19.5107V16.918H153.945V15.9023H154.809V14.5791H155.928V15.9023H157.368V16.918ZM158.89 15.0381C158.688 15.0381 158.519 14.9697 158.382 14.833C158.246 14.6963 158.177 14.5286 158.177 14.3301C158.177 14.125 158.246 13.9557 158.382 13.8223C158.519 13.6888 158.688 13.6221 158.89 13.6221C159.095 13.6221 159.266 13.6888 159.403 13.8223C159.54 13.9557 159.608 14.125 159.608 14.3301C159.608 14.5319 159.54 14.7012 159.403 14.8379C159.266 14.9714 159.095 15.0381 158.89 15.0381ZM158.329 21V15.9023H159.452V21H158.329ZM160.73 21V13.7979H161.853V21H160.73ZM163.693 15.0381C163.491 15.0381 163.321 14.9697 163.185 14.833C163.048 14.6963 162.98 14.5286 162.98 14.3301C162.98 14.125 163.048 13.9557 163.185 13.8223C163.321 13.6888 163.491 13.6221 163.693 13.6221C163.898 13.6221 164.069 13.6888 164.205 13.8223C164.342 13.9557 164.41 14.125 164.41 14.3301C164.41 14.5319 164.342 14.7012 164.205 14.8379C164.069 14.9714 163.898 15.0381 163.693 15.0381ZM163.131 21V15.9023H164.254V21H163.131ZM167.261 21.1221C166.44 21.1221 165.734 20.8617 165.142 20.3408L165.723 19.5498C166.143 19.9502 166.649 20.1504 167.241 20.1504C167.537 20.1504 167.78 20.1016 167.969 20.0039C168.158 19.903 168.252 19.7646 168.252 19.5889C168.252 19.5107 168.231 19.4408 168.188 19.3789C168.149 19.3171 168.101 19.265 168.042 19.2227C167.987 19.1803 167.904 19.1396 167.793 19.1006C167.682 19.0615 167.585 19.0306 167.5 19.0078C167.419 18.985 167.303 18.9557 167.153 18.9199C167.004 18.8841 166.882 18.8548 166.787 18.832C166.693 18.806 166.574 18.7686 166.431 18.7197C166.287 18.6709 166.169 18.6221 166.074 18.5732C165.983 18.5244 165.884 18.4593 165.776 18.3779C165.669 18.2965 165.584 18.2087 165.522 18.1143C165.461 18.0199 165.409 17.9076 165.366 17.7773C165.324 17.6471 165.303 17.5039 165.303 17.3477C165.303 17.0091 165.397 16.7194 165.586 16.4785C165.775 16.2376 166.019 16.0618 166.318 15.9512C166.618 15.8372 166.956 15.7803 167.334 15.7803C168.079 15.7803 168.726 16.0065 169.272 16.459L168.682 17.25C168.291 16.918 167.848 16.752 167.354 16.752C167.09 16.752 166.872 16.7959 166.699 16.8838C166.53 16.9717 166.445 17.1003 166.445 17.2695C166.445 17.3346 166.457 17.3932 166.479 17.4453C166.502 17.4974 166.541 17.5446 166.597 17.5869C166.655 17.6292 166.711 17.665 166.763 17.6943C166.815 17.7236 166.891 17.7546 166.992 17.7871C167.096 17.8164 167.183 17.8408 167.251 17.8604C167.323 17.8766 167.424 17.8994 167.554 17.9287C167.7 17.9613 167.821 17.9906 167.915 18.0166C168.013 18.0394 168.132 18.0752 168.271 18.124C168.415 18.1696 168.534 18.2184 168.628 18.2705C168.722 18.3193 168.822 18.3844 168.926 18.4658C169.03 18.5439 169.113 18.6302 169.175 18.7246C169.24 18.8158 169.292 18.9264 169.331 19.0566C169.373 19.1868 169.395 19.3285 169.395 19.4814C169.395 19.8232 169.299 20.1211 169.106 20.375C168.914 20.6257 168.659 20.8128 168.34 20.9365C168.024 21.0602 167.664 21.1221 167.261 21.1221ZM174.305 15.9023H175.429V21H174.305V20.2676C173.856 20.8372 173.261 21.1221 172.518 21.1221C172.046 21.1221 171.618 21.0065 171.234 20.7754C170.85 20.541 170.549 20.2204 170.331 19.8135C170.116 19.4066 170.009 18.9525 170.009 18.4512C170.009 17.9499 170.116 17.4958 170.331 17.0889C170.549 16.682 170.85 16.363 171.234 16.1318C171.618 15.8975 172.046 15.7803 172.518 15.7803C173.264 15.7803 173.86 16.0635 174.305 16.6299V15.9023ZM172.738 20.0381C173.187 20.0381 173.56 19.8867 173.856 19.584C174.156 19.278 174.305 18.9004 174.305 18.4512C174.305 17.9987 174.156 17.6211 173.856 17.3184C173.56 17.0124 173.187 16.8594 172.738 16.8594C172.286 16.8594 171.908 17.0124 171.605 17.3184C171.306 17.6211 171.156 17.9987 171.156 18.4512C171.156 18.9004 171.306 19.278 171.605 19.584C171.908 19.8867 172.286 20.0381 172.738 20.0381ZM179.783 16.918H178.342V19.3301C178.342 19.5645 178.406 19.7419 178.533 19.8623C178.663 19.9795 178.847 20.0381 179.085 20.0381C179.309 20.0381 179.542 19.9795 179.783 19.8623V20.9121C179.506 21.0521 179.195 21.1221 178.85 21.1221C178.313 21.1221 177.908 20.9805 177.634 20.6973C177.361 20.4141 177.224 20.0186 177.224 19.5107V16.918H176.36V15.9023H177.224V14.5791H178.342V15.9023H179.783V16.918ZM185.626 18.4609C185.626 18.6107 185.617 18.7572 185.597 18.9004H181.466C181.557 19.2682 181.749 19.5628 182.042 19.7842C182.339 20.0023 182.693 20.1113 183.107 20.1113C183.426 20.1113 183.722 20.0446 183.996 19.9111C184.272 19.7777 184.487 19.61 184.64 19.4082L185.397 20.0576C185.133 20.3896 184.798 20.6501 184.391 20.8389C183.987 21.0277 183.55 21.1221 183.078 21.1221C182.27 21.1221 181.598 20.8649 181.061 20.3506C180.527 19.8363 180.26 19.1966 180.26 18.4316C180.26 17.9368 180.377 17.4876 180.612 17.084C180.846 16.6771 181.168 16.3581 181.579 16.127C181.992 15.8958 182.449 15.7803 182.951 15.7803C183.716 15.7803 184.352 16.0358 184.86 16.5469C185.371 17.0547 185.626 17.6927 185.626 18.4609ZM182.941 16.791C182.579 16.791 182.264 16.9001 181.994 17.1182C181.727 17.3363 181.548 17.6243 181.456 17.9824H184.43C184.345 17.6243 184.166 17.3363 183.893 17.1182C183.623 16.9001 183.305 16.791 182.941 16.791ZM188.833 21.1221C188.124 21.1221 187.552 20.9251 187.119 20.5312C186.69 20.1374 186.475 19.6165 186.475 18.9688V15.9023H187.593V18.8223C187.593 19.1868 187.707 19.4814 187.935 19.7061C188.163 19.9274 188.462 20.0381 188.833 20.0381C189.204 20.0381 189.502 19.9274 189.727 19.7061C189.951 19.4847 190.064 19.1901 190.064 18.8223V15.9023H191.182V18.9688C191.182 19.6165 190.967 20.1374 190.537 20.5312C190.108 20.9251 189.54 21.1221 188.833 21.1221ZM195.082 15.8193H195.272V16.9717H195.082C194.587 16.9717 194.198 17.1117 193.915 17.3916C193.635 17.6683 193.495 18.0443 193.495 18.5195V21H192.372V15.9023H193.495V16.6494C193.902 16.096 194.431 15.8193 195.082 15.8193Z" fill="white"/>
</svg>
