<svg width="309" height="36" viewBox="0 0 309 36" fill="none" xmlns="http://www.w3.org/2000/svg">
<rect width="309" height="36" rx="9" fill="#18BC7A"/>
<path fill-rule="evenodd" clip-rule="evenodd" d="M137.192 12H134.904C133.867 12 133.046 12 132.404 12.0855C131.742 12.1734 131.207 12.3588 130.785 12.7765C130.363 13.1942 130.175 13.7238 130.086 14.3782C130 15.0141 130 15.8265 130 16.8522V20.2326C130 21.2775 130.774 22.1436 131.786 22.3003C131.864 22.7267 132.012 23.0907 132.312 23.387C132.651 23.7229 133.079 23.8674 133.587 23.935C134.076 24 134.698 24 135.469 24H137.223C137.995 24 138.617 24 139.106 23.935C139.613 23.8674 140.041 23.7229 140.38 23.387C140.72 23.051 140.866 22.628 140.934 22.1257C141 21.6417 141 21.0265 141 20.2632V17.4112C141 16.6479 141 16.0327 140.934 15.5488C140.866 15.0464 140.72 14.6234 140.38 14.2875C140.081 13.9912 139.713 13.8438 139.282 13.7668C139.124 12.7658 138.248 12 137.192 12ZM138.393 13.6862C138.223 13.1923 137.749 12.8372 137.192 12.8372H134.936C133.86 12.8372 133.096 12.8381 132.516 12.9152C131.949 12.9907 131.622 13.1323 131.383 13.3685C131.144 13.6047 131.001 13.9282 130.925 14.4898C130.847 15.0634 130.846 15.8194 130.846 16.8837V20.2326C130.846 20.7838 131.205 21.252 131.704 21.421C131.692 21.0806 131.692 20.6956 131.692 20.2632V17.4112C131.692 16.6479 131.692 16.0327 131.758 15.5488C131.826 15.0464 131.972 14.6234 132.312 14.2875C132.651 13.9515 133.079 13.807 133.587 13.7395C134.076 13.6744 134.698 13.6744 135.469 13.6744H137.223C137.66 13.6744 138.049 13.6744 138.393 13.6862ZM132.91 14.8794C133.066 14.725 133.286 14.6243 133.699 14.5692C134.126 14.5125 135.5 14.5116 135.5 14.5116H137.192C138.002 14.5116 138.567 14.5125 138.993 14.5692C139.407 14.6243 139.626 14.725 139.782 14.8794C139.938 15.0339 140.04 15.2508 140.096 15.6603C140.153 16.0819 140.154 16.6407 140.154 17.4419V20.2326C140.154 21.0337 140.153 21.5925 140.096 22.0141C140.04 22.4236 139.938 22.6405 139.782 22.795C139.626 22.9495 139.407 23.0502 138.993 23.1052C138.567 23.1619 138.002 23.1628 137.192 23.1628H135.5C134.69 23.1628 134.126 23.1619 133.699 23.1052C133.286 23.0502 133.066 22.9495 132.91 22.795C132.754 22.6405 132.652 22.4236 132.597 22.0141C132.539 21.5925 132.538 21.0337 132.538 20.2326V17.4419C132.538 16.6407 132.539 16.0819 132.597 15.6603C132.652 15.2508 132.754 15.0339 132.91 14.8794Z" fill="white"/>
<path d="M152.771 22.1343C152.212 22.1343 151.688 22.034 151.197 21.8335C150.707 21.6294 150.286 21.3537 149.935 21.0063C149.584 20.659 149.307 20.2437 149.103 19.7603C148.902 19.2733 148.802 18.7541 148.802 18.2026C148.802 17.4686 148.974 16.8026 149.317 16.2046C149.661 15.603 150.136 15.1322 150.741 14.792C151.349 14.4482 152.026 14.2764 152.771 14.2764C153.462 14.2764 154.098 14.4303 154.678 14.7383C155.258 15.0426 155.727 15.458 156.085 15.9844L155.215 16.5215C154.953 16.124 154.61 15.8125 154.184 15.5869C153.757 15.3613 153.287 15.2485 152.771 15.2485C152.359 15.2485 151.971 15.3237 151.605 15.4741C151.244 15.6245 150.934 15.8304 150.676 16.0918C150.418 16.3532 150.214 16.6665 150.064 17.0317C149.914 17.397 149.838 17.7873 149.838 18.2026C149.838 18.7541 149.965 19.2572 150.22 19.7119C150.474 20.1631 150.825 20.5176 151.272 20.7754C151.724 21.0332 152.223 21.1621 152.771 21.1621C153.287 21.1621 153.757 21.0493 154.184 20.8237C154.61 20.5981 154.953 20.2866 155.215 19.8892L156.085 20.4263C155.727 20.9526 155.258 21.3698 154.678 21.6777C154.098 21.9821 153.462 22.1343 152.771 22.1343ZM159.752 22.1343C159.194 22.1343 158.685 22.0072 158.227 21.7529C157.768 21.4951 157.409 21.1424 157.147 20.6948C156.889 20.2437 156.76 19.7441 156.76 19.1963C156.76 18.6484 156.889 18.1507 157.147 17.7031C157.409 17.252 157.768 16.8993 158.227 16.645C158.685 16.3872 159.194 16.2583 159.752 16.2583C160.597 16.2583 161.304 16.5394 161.874 17.1016C162.447 17.6637 162.733 18.362 162.733 19.1963C162.733 20.0306 162.447 20.7288 161.874 21.291C161.304 21.8532 160.597 22.1343 159.752 22.1343ZM159.752 21.2212C160.325 21.2212 160.801 21.0278 161.181 20.6411C161.564 20.2544 161.756 19.7728 161.756 19.1963C161.756 18.6198 161.564 18.1382 161.181 17.7515C160.801 17.3647 160.325 17.1714 159.752 17.1714C159.176 17.1714 158.696 17.3647 158.313 17.7515C157.93 18.1382 157.738 18.6198 157.738 19.1963C157.738 19.7728 157.93 20.2544 158.313 20.6411C158.696 21.0278 159.176 21.2212 159.752 21.2212ZM167.045 16.2583C167.847 16.2583 168.516 16.5394 169.054 17.1016C169.591 17.6637 169.859 18.362 169.859 19.1963C169.859 20.0306 169.591 20.7288 169.054 21.291C168.516 21.8532 167.847 22.1343 167.045 22.1343C166.586 22.1343 166.169 22.034 165.793 21.8335C165.417 21.6294 165.109 21.3483 164.869 20.9902V24.0894H163.924V16.3926H164.869V17.4023C165.109 17.0443 165.417 16.765 165.793 16.5645C166.169 16.3604 166.586 16.2583 167.045 16.2583ZM166.868 21.2212C167.444 21.2212 167.924 21.0278 168.307 20.6411C168.69 20.2544 168.882 19.7728 168.882 19.1963C168.882 18.6198 168.69 18.1382 168.307 17.7515C167.924 17.3647 167.444 17.1714 166.868 17.1714C166.295 17.1714 165.818 17.3647 165.439 17.7515C165.059 18.1382 164.869 18.6198 164.869 19.1963C164.869 19.7728 165.059 20.2544 165.439 20.6411C165.818 21.0278 166.295 21.2212 166.868 21.2212ZM174.966 16.3926H176.024L172.995 23.187C172.855 23.5129 172.656 23.7671 172.398 23.9497C172.144 24.1323 171.863 24.2236 171.555 24.2236C171.333 24.2236 171.102 24.1735 170.862 24.0732C170.626 23.973 170.427 23.8423 170.266 23.6812L170.664 22.9561C170.875 23.1924 171.124 23.3105 171.41 23.3105C171.725 23.3105 171.965 23.1423 172.13 22.8057L172.533 21.9678L170.094 16.3926H171.179L173.075 20.8667L174.966 16.3926Z" fill="white"/>
</svg>
