<svg width="321" height="36" viewBox="0 0 321 36" fill="none" xmlns="http://www.w3.org/2000/svg">
<rect width="321" height="36" rx="9" fill="#18BC7A"/>
<path d="M300.354 18.8536C300.549 18.6583 300.549 18.3417 300.354 18.1464L297.172 14.9645C296.976 14.7692 296.66 14.7692 296.464 14.9645C296.269 15.1597 296.269 15.4763 296.464 15.6716L299.293 18.5L296.464 21.3284C296.269 21.5237 296.269 21.8403 296.464 22.0355C296.66 22.2308 296.976 22.2308 297.172 22.0355L300.354 18.8536ZM290 19L300 19L300 18L290 18L290 19Z" fill="white"/>
<path d="M136.121 22L133.988 18.918H132.904V22H131.48V13.7207H134.92C135.693 13.7207 136.34 13.9707 136.859 14.4707C137.383 14.9707 137.644 15.5957 137.644 16.3457C137.644 16.9707 137.455 17.5098 137.076 17.9629C136.701 18.416 136.211 18.709 135.605 18.8418L137.838 22H136.121ZM132.904 15.0625V17.6699H134.896C135.264 17.6699 135.568 17.5449 135.81 17.2949C136.057 17.041 136.18 16.7285 136.18 16.3574C136.18 15.9863 136.057 15.6777 135.81 15.4316C135.568 15.1855 135.264 15.0625 134.896 15.0625H132.904ZM144.75 18.9531C144.75 19.1328 144.739 19.3086 144.715 19.4805H139.758C139.868 19.9219 140.098 20.2754 140.45 20.541C140.805 20.8027 141.231 20.9336 141.727 20.9336C142.11 20.9336 142.465 20.8535 142.793 20.6934C143.125 20.5332 143.383 20.332 143.567 20.0898L144.475 20.8691C144.159 21.2676 143.756 21.5801 143.268 21.8066C142.784 22.0332 142.258 22.1465 141.692 22.1465C140.723 22.1465 139.916 21.8379 139.272 21.2207C138.631 20.6035 138.311 19.8359 138.311 18.918C138.311 18.3242 138.452 17.7852 138.733 17.3008C139.014 16.8125 139.401 16.4297 139.893 16.1523C140.389 15.875 140.938 15.7363 141.539 15.7363C142.457 15.7363 143.221 16.043 143.83 16.6562C144.444 17.2656 144.75 18.0312 144.75 18.9531ZM141.528 16.9492C141.094 16.9492 140.715 17.0801 140.391 17.3418C140.071 17.6035 139.856 17.9492 139.747 18.3789H143.315C143.213 17.9492 142.998 17.6035 142.67 17.3418C142.346 17.0801 141.965 16.9492 141.528 16.9492ZM148.769 22.1465C147.835 22.1465 147.056 21.8398 146.431 21.2266C145.806 20.6133 145.493 19.8516 145.493 18.9414C145.493 18.0312 145.806 17.2695 146.431 16.6562C147.056 16.043 147.835 15.7363 148.769 15.7363C149.374 15.7363 149.923 15.873 150.415 16.1465C150.907 16.4199 151.294 16.791 151.575 17.2598L150.409 17.9688C150.245 17.6797 150.019 17.4512 149.729 17.2832C149.44 17.1152 149.12 17.0312 148.769 17.0312C148.229 17.0312 147.778 17.2148 147.415 17.582C147.052 17.9492 146.87 18.4023 146.87 18.9414C146.87 19.4805 147.052 19.9336 147.415 20.3008C147.778 20.6641 148.229 20.8457 148.769 20.8457C149.124 20.8457 149.444 20.7617 149.729 20.5938C150.019 20.4258 150.245 20.1992 150.409 19.9141L151.575 20.6172C151.294 21.0859 150.905 21.459 150.409 21.7363C149.917 22.0098 149.37 22.1465 148.769 22.1465ZM156.009 15.7363C156.736 15.7363 157.32 15.957 157.761 16.3984C158.207 16.8398 158.429 17.4238 158.429 18.1504V22H157.087V18.5898C157.087 18.1211 156.949 17.7441 156.671 17.459C156.394 17.1738 156.025 17.0312 155.564 17.0312C155.08 17.0312 154.689 17.1758 154.392 17.4648C154.095 17.7539 153.947 18.1367 153.947 18.6133V22H152.599V13.3574H153.947V16.709C154.447 16.0605 155.134 15.7363 156.009 15.7363ZM164.674 15.8828H166.022V22H164.674V21.1211C164.135 21.8047 163.42 22.1465 162.529 22.1465C161.963 22.1465 161.449 22.0078 160.988 21.7305C160.527 21.4492 160.166 21.0645 159.904 20.5762C159.647 20.0879 159.518 19.543 159.518 18.9414C159.518 18.3398 159.647 17.7949 159.904 17.3066C160.166 16.8184 160.527 16.4355 160.988 16.1582C161.449 15.877 161.963 15.7363 162.529 15.7363C163.424 15.7363 164.139 16.0762 164.674 16.7559V15.8828ZM162.793 20.8457C163.332 20.8457 163.779 20.6641 164.135 20.3008C164.494 19.9336 164.674 19.4805 164.674 18.9414C164.674 18.3984 164.494 17.9453 164.135 17.582C163.779 17.2148 163.332 17.0312 162.793 17.0312C162.25 17.0312 161.797 17.2148 161.434 17.582C161.074 17.9453 160.895 18.3984 160.895 18.9414C160.895 19.4805 161.074 19.9336 161.434 20.3008C161.797 20.6641 162.25 20.8457 162.793 20.8457ZM170.813 15.7832H171.042V17.166H170.813C170.219 17.166 169.753 17.334 169.413 17.6699C169.077 18.002 168.909 18.4531 168.909 19.0234V22H167.561V15.8828H168.909V16.7793C169.397 16.1152 170.032 15.7832 170.813 15.7832ZM175.751 22.0586C176.345 22.0586 176.839 22.2129 177.234 22.5215C177.628 22.834 177.87 23.2598 177.96 23.7988L176.566 24.1738C176.55 23.9277 176.445 23.7305 176.249 23.582C176.054 23.4375 175.804 23.3652 175.499 23.3652H173.396C172.853 23.3652 172.413 23.2207 172.077 22.9316C171.741 22.6465 171.573 22.2715 171.573 21.8066C171.573 21.502 171.646 21.2168 171.79 20.9512C171.935 20.6816 172.13 20.4746 172.376 20.3301C171.825 19.8184 171.55 19.1797 171.55 18.4141C171.55 17.6523 171.822 17.0156 172.364 16.5039C172.907 15.9922 173.583 15.7363 174.392 15.7363C174.892 15.7363 175.357 15.8438 175.786 16.0586C175.864 15.7305 176.036 15.4727 176.302 15.2852C176.572 15.0977 176.9 15.0039 177.286 15.0039H177.779V16.252H177.357C177.169 16.252 177.011 16.3008 176.882 16.3984C176.757 16.4922 176.687 16.6191 176.671 16.7793C177.05 17.252 177.239 17.7969 177.239 18.4141C177.239 19.1719 176.966 19.8066 176.419 20.3184C175.872 20.8301 175.197 21.0859 174.392 21.0859C173.974 21.0859 173.595 21.0195 173.255 20.8867C173.036 21.0312 172.927 21.2266 172.927 21.4727C172.927 21.6445 172.993 21.7852 173.126 21.8945C173.259 22.0039 173.433 22.0586 173.648 22.0586H175.751ZM174.392 17.0078C173.974 17.0078 173.624 17.1426 173.343 17.4121C173.066 17.6777 172.927 18.0117 172.927 18.4141C172.927 18.8125 173.066 19.1465 173.343 19.416C173.624 19.6816 173.974 19.8145 174.392 19.8145C174.806 19.8145 175.152 19.6797 175.429 19.4102C175.706 19.1406 175.845 18.8086 175.845 18.4141C175.845 18.0117 175.706 17.6777 175.429 17.4121C175.152 17.1426 174.806 17.0078 174.392 17.0078ZM184.586 18.9531C184.586 19.1328 184.574 19.3086 184.551 19.4805H179.594C179.703 19.9219 179.933 20.2754 180.285 20.541C180.64 20.8027 181.066 20.9336 181.562 20.9336C181.945 20.9336 182.301 20.8535 182.629 20.6934C182.961 20.5332 183.219 20.332 183.402 20.0898L184.31 20.8691C183.994 21.2676 183.592 21.5801 183.103 21.8066C182.619 22.0332 182.094 22.1465 181.527 22.1465C180.558 22.1465 179.752 21.8379 179.107 21.2207C178.467 20.6035 178.146 19.8359 178.146 18.918C178.146 18.3242 178.287 17.7852 178.568 17.3008C178.849 16.8125 179.236 16.4297 179.728 16.1523C180.224 15.875 180.773 15.7363 181.375 15.7363C182.293 15.7363 183.056 16.043 183.666 16.6562C184.279 17.2656 184.586 18.0312 184.586 18.9531ZM181.363 16.9492C180.929 16.9492 180.551 17.0801 180.226 17.3418C179.906 17.6035 179.691 17.9492 179.582 18.3789H183.15C183.049 17.9492 182.834 17.6035 182.506 17.3418C182.181 17.0801 181.801 16.9492 181.363 16.9492ZM188.95 15.7832H189.178V17.166H188.95C188.356 17.166 187.889 17.334 187.549 17.6699C187.213 18.002 187.045 18.4531 187.045 19.0234V22H185.698V15.8828H187.045V16.7793C187.534 16.1152 188.168 15.7832 188.95 15.7832Z" fill="white"/>
</svg>
