<svg width="39" height="39" viewBox="0 0 39 39" fill="none" xmlns="http://www.w3.org/2000/svg">
<rect x="0.660156" width="37.5843" height="38.4583" rx="18.7921" fill="#18BC7A"/>
<path fill-rule="evenodd" clip-rule="evenodd" d="M19.4523 14.7661C17.7178 14.7661 16.3116 16.1722 16.3116 17.9068V23.0311H22.5931V17.9068C22.5931 16.1722 21.1869 14.7661 19.4523 14.7661ZM24.2461 23.0311V17.9068C24.2461 15.2593 22.0998 13.113 19.4523 13.113C16.8048 13.113 14.6586 15.2593 14.6586 17.9068V23.0311H14.1627C13.7062 23.0311 13.3362 23.4012 13.3362 23.8576C13.3362 24.3141 13.7062 24.6841 14.1627 24.6841H24.742C25.1985 24.6841 25.5685 24.3141 25.5685 23.8576C25.5685 23.4012 25.1985 23.0311 24.742 23.0311H24.2461Z" fill="white"/>
<path fill-rule="evenodd" clip-rule="evenodd" d="M17.9646 25.8413C17.9646 25.3848 18.3346 25.0148 18.7911 25.0148H20.1135C20.57 25.0148 20.94 25.3848 20.94 25.8413C20.94 26.2977 20.57 26.6678 20.1135 26.6678H18.7911C18.3346 26.6678 17.9646 26.2977 17.9646 25.8413Z" fill="white"/>
<path fill-rule="evenodd" clip-rule="evenodd" d="M19.4523 13.4437C19.5436 13.4437 19.6176 13.3697 19.6176 13.2784C19.6176 13.1871 19.5436 13.1131 19.4523 13.1131C19.361 13.1131 19.287 13.1871 19.287 13.2784C19.287 13.3697 19.361 13.4437 19.4523 13.4437ZM17.9646 13.2784C17.9646 12.4567 18.6307 11.7906 19.4523 11.7906C20.274 11.7906 20.94 12.4567 20.94 13.2784C20.94 14.1 20.274 14.7661 19.4523 14.7661C18.6307 14.7661 17.9646 14.1 17.9646 13.2784Z" fill="white"/>
</svg>
