<svg width="12" height="13" viewBox="0 0 12 13" fill="none" xmlns="http://www.w3.org/2000/svg">
<path fill-rule="evenodd" clip-rule="evenodd" d="M7.09993 3.23524C7.09993 1.92823 8.15945 0.868652 9.46651 0.868652C10.7736 0.868652 11.8331 1.92823 11.8331 3.23524C11.8331 4.54225 10.7736 5.60183 9.46651 5.60183C8.15945 5.60183 7.09993 4.54225 7.09993 3.23524ZM2.36659 7.96842C1.05958 7.96842 0 9.02794 0 10.335C0 11.6421 1.05958 12.7016 2.36659 12.7016C3.6736 12.7016 4.73318 11.6421 4.73318 10.335C4.73318 9.02794 3.6736 7.96842 2.36659 7.96842ZM9.46651 7.96842C8.15947 7.96842 7.09993 9.02796 7.09993 10.335C7.09993 11.6421 8.15947 12.7016 9.46651 12.7016C10.7736 12.7016 11.8331 11.6421 11.8331 10.335C11.8331 9.02796 10.7736 7.96842 9.46651 7.96842ZM2.36659 0.951782C1.05956 0.951782 0 2.01135 0 3.31837C0 4.6254 1.05956 5.68496 2.36659 5.68496C3.67361 5.68496 4.73318 4.6254 4.73318 3.31837C4.73318 2.01135 3.67361 0.951782 2.36659 0.951782Z" fill="white"/>
</svg>
