<svg width="12" height="13" viewBox="0 0 12 13" fill="none" xmlns="http://www.w3.org/2000/svg">
<path fill-rule="evenodd" clip-rule="evenodd" d="M7.09998 3.23524C7.09998 1.92823 8.1595 0.868652 9.46656 0.868652C10.7736 0.868652 11.8332 1.92823 11.8332 3.23524C11.8332 4.54225 10.7736 5.60183 9.46656 5.60183C8.1595 5.60183 7.09998 4.54225 7.09998 3.23524ZM2.36659 7.96844C1.05958 7.96844 0 9.02797 0 10.335C0 11.6421 1.05958 12.7016 2.36659 12.7016C3.6736 12.7016 4.73318 11.6421 4.73318 10.335C4.73318 9.02797 3.6736 7.96844 2.36659 7.96844ZM9.46656 7.96844C8.15952 7.96844 7.09998 9.02798 7.09998 10.335C7.09998 11.6421 8.15952 12.7016 9.46656 12.7016C10.7736 12.7016 11.8332 11.6421 11.8332 10.335C11.8332 9.02798 10.7736 7.96844 9.46656 7.96844ZM2.36659 0.951782C1.05956 0.951782 0 2.01135 0 3.31837C0 4.6254 1.05956 5.68496 2.36659 5.68496C3.67361 5.68496 4.73318 4.6254 4.73318 3.31837C4.73318 2.01135 3.67361 0.951782 2.36659 0.951782Z" fill="white"/>
</svg>
